<?xml version="1.0" encoding="UTF-8"?>
<svg width="32px" height="31px" viewBox="0 0 32 32" version="1.1" xmlns="http://www.w3.org/2000/svg" xmlns:xlink="http://www.w3.org/1999/xlink">
    <title>14-document/208-document-check</title>
    <defs>
        <path d="M31.6923077,19.5769231 C31.6923077,14.1055385 27.7365385,9.56915385 22.5306154,8.64330769 L22.5384615,8.52430769 L22.5384615,1.92307692 C22.5384615,1.20123077 21.9539231,0.615384615 21.2307692,0.615384615 L1.61538462,0.615384615 C0.893538462,0.615384615 0.307692308,1.20123077 0.307692308,1.92307692 L0.307692308,29.3846154 C0.307692308,30.1077692 0.893538462,30.6923077 1.61538462,30.6923077 L21.2307692,30.6923077 L21.2333846,30.6596154 C27.0643846,30.3183077 31.6923077,25.4942308 31.6923077,19.5769231 L31.6923077,19.5769231 Z M20.5769231,29.3846154 C15.1604615,29.3846154 10.7692308,24.9946923 10.7692308,19.5769231 C10.7692308,14.1604615 15.1604615,9.76923077 20.5769231,9.76923077 C25.9946923,9.76923077 30.3846154,14.1604615 30.3846154,19.5769231 C30.3846154,24.9946923 25.9946923,29.3846154 20.5769231,29.3846154 L20.5769231,29.3846154 Z M1.61538462,29.3846154 L1.61538462,1.92307692 L21.2307692,1.92307692 L21.2307692,8.49423077 C21.0136923,8.48246154 20.7979231,8.46153846 20.5769231,8.46153846 C14.4386154,8.46153846 9.46153846,13.4386154 9.46153846,19.5769231 C9.46153846,23.8256154 11.8467692,27.5133077 15.3487692,29.3846154 L1.61538462,29.3846154 Z M12.0769231,11.7307692 C12.0769231,11.3698462 11.8480769,11.0769231 11.5656154,11.0769231 L4.74207692,11.0769231 C4.45961538,11.0769231 4.23076923,11.3698462 4.23076923,11.7307692 C4.23076923,12.0916923 4.45961538,12.3846154 4.74207692,12.3846154 L11.5656154,12.3846154 C11.8480769,12.3846154 12.0769231,12.0916923 12.0769231,11.7307692 M4.82524615,8.46153846 L16.7134769,8.46153846 C17.0417077,8.46153846 17.3071692,8.16861538 17.3071692,7.80769231 C17.3071692,7.44676923 17.0417077,7.15384615 16.7134769,7.15384615 L4.82524615,7.15384615 C4.49701538,7.15384615 4.23024615,7.44676923 4.23024615,7.80769231 C4.23024615,8.16861538 4.49701538,8.46153846 4.82524615,8.46153846 M24.5190923,16.0363462 C21.5140154,19.1669615 20.0114769,20.7335769 20.0075538,20.7361923 C19.7512462,20.9925 19.3380154,20.9925 19.0830154,20.7361923 L17.7700923,19.4232692 C17.5150923,19.1682692 17.1005538,19.1682692 16.8455538,19.4232692 C16.5905538,19.6795769 16.5905538,20.0928077 16.8455538,20.3478077 L18.1584769,21.6607308 C18.9247846,22.4270385 20.1670923,22.4270385 20.9320923,21.6607308 C20.9477846,21.6476538 20.9477846,21.6476538 20.9608615,21.6332692 L25.4632462,16.9412692 C25.7117077,16.6810385 25.7038615,16.2678077 25.4436308,16.0167308 C25.1834,15.7669615 24.7675538,15.7761154 24.5190923,16.0363462" id="path-1"></path>
    </defs>
    <g id="Page-1" stroke="none" stroke-width="1" fill="none" fill-rule="evenodd">
        <g id="2.0---Application-Status-Login-1" transform="translate(-541.000000, -190.000000)">
            <g id="14-document/208-document-check" transform="translate(541.000000, 190.000000)">
                <mask id="mask-2" fill="white">
                    <use xlink:href="#path-1"></use>
                </mask>
                <use id="Mask" fill="#046EAE" xlink:href="#path-1"></use>
                <g id="color/b1" mask="url(#mask-2)" fill="#002A54">
                    <g transform="translate(-1.000000, -2.000000)" id="Color-/-B1">
                        <rect x="0" y="0" width="34" height="34"></rect>
                    </g>
                </g>
            </g>
        </g>
    </g>
</svg>